<mxfile host="app.diagrams.net" modified="2024-05-27T11:47:34.431Z" agent="Mozilla/5.0 (Windows NT 10.0; Win64; x64) AppleWebKit/537.36 (KHTML, like Gecko) Chrome/121.0.0.0 Safari/537.36" etag="epEGAgBoTyuWMvip7424" version="24.4.8" type="device">
  <diagram name="PÃ¡gina-1" id="HdGTkWyh92yAQT41dvv-">
    <mxGraphModel dx="3585" dy="1955" grid="1" gridSize="10" guides="1" tooltips="1" connect="1" arrows="1" fold="1" page="1" pageScale="1" pageWidth="1600" pageHeight="900" math="0" shadow="0">
      <root>
        <mxCell id="0" />
        <mxCell id="1" parent="0" />
      </root>
    </mxGraphModel>
  </diagram>
</mxfile>
